<?xml version="1.0" standalone="no"?>
<!DOCTYPE svg PUBLIC "-//W3C//DTD SVG 20010904//EN"
 "http://www.w3.org/TR/2001/REC-SVG-20010904/DTD/svg10.dtd">
<svg version="1.0" xmlns="http://www.w3.org/2000/svg"
 width="486.000000pt" height="513.000000pt" viewBox="0 0 486.000000 513.000000"
 preserveAspectRatio="xMidYMid meet">

<g transform="translate(0.000000,513.000000) scale(0.100000,-0.100000)"
fill="#ff8c1a" stroke="none">
<path d="M2394 4596 c-13 -10 -25 -11 -35 -5 -21 13 -26 11 -34 -13 -11 -36
-12 -40 -13 -91 -1 -27 -6 -46 -10 -43 -5 3 -7 24 -5 48 5 62 -1 72 -32 52
-14 -9 -25 -22 -25 -30 0 -22 -22 -64 -31 -58 -5 3 -14 -6 -21 -20 -19 -44
-25 -29 -20 59 3 47 2 85 -1 85 -8 0 -28 -185 -21 -203 9 -23 90 -23 124 0 24
17 25 17 10 -2 -8 -11 -22 -24 -30 -29 -15 -10 -69 -10 -101 0 -12 3 -16 -2
-16 -21 0 -14 7 -30 16 -34 18 -10 448 3 459 13 3 4 1 16 -6 27 -7 10 -9 31
-6 44 8 31 -13 85 -32 85 -8 0 -14 7 -14 16 0 23 -29 43 -63 44 -16 0 -26 4
-23 9 5 7 -13 36 -44 73 -3 4 -15 1 -26 -6z"/>
<path d="M2803 4425 c0 -27 2 -38 4 -22 2 15 2 37 0 50 -2 12 -4 0 -4 -28z"/>
<path d="M2041 4254 c0 -11 3 -14 6 -6 3 7 2 16 -1 19 -3 4 -6 -2 -5 -13z"/>
<path d="M2313 4202 c-62 -1 -113 -7 -113 -11 0 -5 -18 -11 -40 -13 -22 -2
-40 0 -40 4 0 4 -7 5 -15 2 -12 -5 -14 -21 -11 -81 3 -62 7 -77 25 -89 11 -8
21 -23 22 -32 2 -34 17 33 18 80 1 29 7 53 18 63 15 16 17 15 28 -4 6 -12 14
-18 18 -15 4 4 7 3 7 -2 0 -6 -5 -15 -12 -22 -16 -16 -19 -42 -5 -42 7 0 5 -5
-3 -10 -11 -7 -11 -10 -2 -10 7 0 10 -4 7 -10 -3 -5 1 -10 11 -10 14 0 15 -2
3 -17 -12 -15 -12 -16 5 -10 21 8 41 -11 71 -66 l19 -35 -29 -44 c-18 -27 -30
-61 -33 -92 l-5 -49 -18 34 c-16 31 -18 32 -19 10 0 -19 -3 -21 -14 -12 -8 7
-15 20 -15 29 0 32 -18 112 -26 120 -4 4 -5 -14 -2 -40 5 -35 3 -48 -6 -48 -9
0 -9 -2 0 -8 7 -4 16 -28 22 -52 22 -96 94 -238 141 -277 21 -18 152 -83 159
-79 3 1 23 10 44 19 20 9 53 24 73 34 35 16 96 88 128 150 27 55 57 139 42
120 -10 -14 -15 -15 -19 -5 -4 9 -6 8 -6 -3 -1 -9 -7 -22 -15 -28 -12 -10 -13
-8 -9 8 6 23 -6 28 -25 9 -16 -16 -16 14 0 58 16 45 -12 118 -56 145 -17 10
-34 19 -38 19 -11 0 -10 -54 1 -65 5 -6 11 -30 15 -54 6 -42 6 -43 -16 -37
-13 3 -36 6 -53 6 -30 1 -30 1 -7 13 12 7 20 16 16 20 -4 4 -13 2 -21 -4 -17
-14 -17 3 0 20 10 11 8 12 -10 6 -17 -5 -23 -2 -23 10 0 10 -8 15 -22 14 -62
-6 -123 58 -84 87 9 6 16 16 16 22 0 16 32 52 47 52 6 0 15 -10 18 -21 7 -21
8 -20 27 9 16 26 23 30 38 22 10 -6 29 -10 42 -10 13 0 34 -7 47 -16 22 -16
24 -16 53 15 16 17 38 31 49 31 12 0 19 7 19 18 0 10 5 23 11 29 8 8 8 17 0
31 -10 18 -7 23 21 36 17 9 33 14 35 12 2 -2 4 -33 4 -68 l1 -65 34 35 c19 20
34 45 34 59 0 12 8 31 18 41 9 11 25 29 34 40 16 19 16 22 2 22 -9 0 -41 -7
-71 -16 -56 -16 -135 -13 -160 8 -7 5 -48 8 -92 6 -45 -2 -81 0 -81 4 0 3 -26
5 -57 5 -32 -1 -109 -3 -170 -5z m77 -377 c10 -13 9 -15 -8 -15 -15 0 -20 5
-16 15 4 8 7 15 9 15 1 0 8 -7 15 -15z m5 -75 c-28 -12 -47 -12 -40 0 3 6 18
10 33 9 24 0 25 -1 7 -9z m35 -29 c0 -5 9 -7 20 -4 14 4 20 0 20 -11 0 -10 -4
-15 -9 -12 -5 4 -12 0 -14 -6 -4 -10 -8 -10 -15 1 -5 7 -14 11 -20 7 -5 -3
-16 2 -23 11 -12 15 -12 16 4 10 9 -3 17 -2 17 3 0 6 5 10 10 10 6 0 10 -4 10
-9z m88 -26 c2 -15 1 -17 -6 -6 -6 7 -15 10 -21 7 -6 -4 -11 0 -11 9 0 24 34
14 38 -10z m42 5 c0 -5 -6 -10 -12 -13 -7 -2 -10 -8 -6 -12 4 -4 13 -3 20 2 7
6 25 13 40 17 23 5 28 3 34 -18 3 -15 -1 -34 -10 -48 -9 -14 -13 -28 -9 -31
15 -16 -78 -74 -98 -61 -16 9 -10 22 13 30 36 11 48 34 28 54 -9 9 -24 20 -34
23 -16 6 -16 9 -2 28 8 12 12 28 9 35 -4 10 0 12 11 8 9 -3 16 -10 16 -14z
m-157 -61 c4 -15 2 -19 -9 -15 -21 8 -17 -2 14 -30 20 -19 22 -24 8 -20 -10 4
-26 1 -34 -6 -12 -10 -14 -10 -8 0 4 7 2 12 -7 12 -9 0 -17 13 -20 33 -4 17
-9 47 -13 66 l-7 34 36 -27 c19 -15 37 -36 40 -47z"/>
<path d="M2092 3970 c0 -19 2 -27 5 -17 2 9 2 25 0 35 -3 9 -5 1 -5 -18z"/>
<path d="M2846 3915 c8 -34 12 -41 20 -33 3 4 -2 19 -10 35 l-16 28 6 -30z"/>
<path d="M2112 3900 c-8 -16 -11 -34 -7 -40 13 -20 23 -9 27 30 4 48 -2 51
-20 10z"/>
<path d="M2390 3880 c0 -5 12 -10 28 -10 21 0 24 2 12 10 -20 13 -40 13 -40 0z"/>
<path d="M2750 3392 c0 -103 -2 -113 -31 -169 -17 -34 -42 -67 -55 -74 -25
-13 -31 -33 -14 -44 12 -8 47 10 84 44 l29 26 -21 -32 c-42 -60 -146 -123
-203 -123 -37 0 -78 -30 -105 -76 l-27 -47 -12 47 c-7 26 -21 60 -32 75 l-20
27 23 11 c15 7 26 7 33 0 5 -5 29 -7 56 -3 l46 7 -3 49 -3 49 -58 -4 c-32 -3
-63 -7 -68 -10 -5 -4 -9 -1 -9 6 0 6 -24 44 -54 83 -75 99 -89 134 -84 201 5
64 -4 69 -50 27 -20 -18 -33 -43 -37 -68 -4 -21 -8 -44 -10 -49 -3 -12 -230
-102 -365 -144 -94 -30 -169 -70 -201 -107 -33 -37 -187 -379 -199 -439 -6
-33 -15 -78 -20 -100 -18 -85 -22 -175 -11 -204 11 -25 9 -33 -14 -67 -21 -31
-25 -45 -20 -76 6 -33 3 -42 -24 -68 -29 -30 -30 -34 -26 -94 5 -63 5 -64 -22
-71 l-28 -7 31 -12 c17 -6 29 -16 27 -23 -2 -7 -11 -9 -19 -6 -24 9 -16 -26 8
-38 28 -12 53 -60 37 -69 -6 -4 -7 -18 -4 -33 6 -22 3 -28 -16 -35 -32 -12
-59 -3 -59 19 0 10 -5 16 -12 14 -7 -3 -26 -1 -43 4 -25 7 -36 3 -68 -22 -21
-16 -54 -35 -74 -42 l-36 -12 94 -51 c123 -66 306 -119 360 -103 52 16 123 75
150 126 13 25 27 45 31 45 4 0 16 9 26 20 19 21 19 21 25 -27 3 -26 4 -262 2
-523 -4 -474 -4 -475 -29 -568 -33 -118 -33 -163 -1 -217 13 -23 22 -44 20
-47 -5 -5 -19 -99 -39 -266 l-12 -102 674 0 c632 0 673 1 679 18 9 26 45 62
55 56 5 -3 -4 -20 -18 -37 l-27 -32 108 -3 c75 -2 111 1 116 9 11 18 19 210
11 254 l-8 40 -23 -62 c-13 -35 -25 -63 -26 -63 -1 0 -1 15 0 33 4 57 17 99
34 105 9 3 42 31 74 63 l57 56 0 74 c0 40 -4 98 -10 128 -5 31 -14 110 -19
176 -6 66 -24 174 -40 240 -16 66 -41 201 -55 300 -14 99 -30 207 -36 240 -5
33 -10 67 -10 74 0 28 17 -4 29 -52 9 -38 24 -60 64 -99 78 -75 86 -78 222
-72 166 7 245 27 277 72 7 11 20 21 28 25 12 4 12 6 -2 6 -19 1 -35 26 -49 74
-11 39 4 98 31 122 26 24 25 35 -4 35 -23 0 -96 -68 -96 -89 0 -5 -9 -11 -20
-14 -13 -3 -20 0 -20 9 0 19 -14 17 -34 -5 -10 -10 -25 -18 -34 -16 -9 2 -17
4 -17 5 0 1 -13 4 -29 6 -18 3 -35 -1 -49 -13 -20 -18 -20 -18 -8 5 14 27 85
74 147 98 l42 16 -19 32 c-16 28 -30 92 -46 209 -5 39 -23 52 -23 17 0 -23
-22 -36 -41 -24 -9 5 -9 10 2 18 21 16 43 70 31 74 -7 2 -5 19 5 46 l16 42
-41 40 c-37 36 -40 43 -38 88 1 30 8 53 17 60 9 6 21 25 27 41 6 19 11 23 11
12 2 -38 19 -5 23 45 6 62 -9 142 -52 263 -17 50 -36 108 -41 130 -18 74 -30
93 -87 133 -32 22 -66 50 -77 62 -11 12 -47 43 -80 69 -33 25 -141 113 -240
196 -99 83 -186 154 -192 159 -10 5 -13 -17 -13 -102z m190 -155 c0 -6 -9 -2
-20 8 -11 10 -20 23 -20 28 0 6 9 2 20 -8 11 -10 20 -23 20 -28z m-450 -121
c0 -3 -4 -8 -10 -11 -5 -3 -10 -1 -10 4 0 6 5 11 10 11 6 0 10 -2 10 -4z m307
-73 c3 -7 -3 -9 -17 -6 -29 8 -37 25 -9 21 12 -1 24 -8 26 -15z m-448 -465 c1
-5 -5 -8 -13 -8 -9 0 -12 8 -8 27 5 25 6 25 13 8 4 -11 8 -23 8 -27z m791
-363 c-7 -8 -17 -15 -23 -15 -6 0 -2 7 9 15 25 19 30 19 14 0z m-59 -149 c1
-30 -5 -44 -27 -65 l-28 -26 23 27 c23 27 24 30 11 82 -7 30 -9 63 -5 73 6 15
9 12 16 -17 5 -19 9 -52 10 -74z m-602 -226 c-1 -23 -27 68 -33 114 -4 27 1
17 14 -29 11 -38 19 -77 19 -85z m533 70 c-4 -62 -17 -79 -28 -35 -4 16 -12
24 -22 23 -9 -2 -18 5 -20 16 -3 13 0 17 11 13 8 -3 25 5 38 19 12 13 23 24
23 24 1 0 -1 -27 -2 -60z m-222 -54 c0 -11 10 -26 50 -73 6 -7 8 -13 5 -13 -3
0 -1 -9 5 -20 6 -11 8 -20 5 -20 -9 0 -45 39 -45 49 0 5 -5 11 -12 13 -6 2
-12 13 -14 23 -2 10 -5 30 -9 43 -4 15 -2 21 5 17 5 -3 10 -12 10 -19z m-275
-140 c14 -49 23 -91 20 -94 -3 -3 -5 2 -5 11 0 8 -6 22 -13 29 -13 12 -20 40
-32 128 -7 47 0 31 30 -74z m495 37 c0 -13 -4 -23 -10 -23 -5 0 -10 17 -10 38
0 27 3 33 10 22 5 -8 10 -25 10 -37z m45 -52 c3 -5 1 -12 -5 -16 -5 -3 -10 1
-10 9 0 18 6 21 15 7z m5 -1541 c0 -5 -5 -10 -11 -10 -5 0 -7 5 -4 10 3 6 8
10 11 10 2 0 4 -4 4 -10z"/>
<path d="M2467 3276 c-4 -10 -5 -21 -2 -24 9 -9 17 6 13 25 -3 17 -4 17 -11
-1z"/>
<path d="M3812 2438 c-5 -7 -15 -36 -21 -65 -6 -28 -20 -70 -33 -94 -12 -23
-24 -65 -26 -94 l-4 -52 44 -22 c24 -11 51 -21 59 -21 21 0 83 67 108 117 27
54 27 56 -9 71 -26 12 -30 19 -30 52 0 55 15 57 44 8 14 -24 26 -39 26 -34 0
5 -14 31 -31 58 -50 77 -101 107 -127 76z"/>
<path d="M3956 2431 c-5 -8 72 -61 88 -61 19 0 1 33 -26 50 -36 22 -54 25 -62
11z"/>
<path d="M991 2293 c-60 -66 -71 -83 -71 -113 1 -43 15 -109 27 -121 14 -14
111 2 118 19 11 29 14 138 6 197 -5 35 -5 67 1 78 20 38 -14 13 -81 -60z"/>
<path d="M413 2308 c-26 -34 -24 -38 17 -38 l40 0 -16 25 c-18 28 -27 31 -41
13z"/>
<path d="M506 2221 l-29 -30 -28 21 c-35 26 -51 20 -84 -32 -14 -22 -32 -40
-40 -40 -18 0 -30 -78 -18 -127 l9 -37 24 39 24 40 4 -28 c2 -16 -2 -34 -8
-41 -22 -28 24 -135 48 -111 3 2 6 30 7 62 1 53 34 143 51 143 4 0 3 -51 -1
-114 -7 -110 -6 -114 16 -135 30 -28 35 -20 19 29 -12 37 -12 44 10 83 31 55
61 99 66 94 2 -2 -2 -26 -10 -53 -26 -91 -28 -121 -10 -156 22 -43 19 -41 43
-28 14 7 21 21 21 39 0 30 28 130 40 144 11 13 -17 -148 -29 -172 -11 -19 -8
-25 11 -22 4 0 10 -8 13 -19 4 -13 15 -20 33 -20 42 0 102 20 102 33 0 12 -31
115 -46 152 -7 19 -7 20 13 2 21 -18 58 -101 65 -142 2 -14 14 -22 38 -26 19
-3 49 -14 65 -23 34 -18 71 -21 80 -6 3 6 -2 10 -12 10 -10 0 -26 7 -36 15
-11 7 -25 11 -32 8 -8 -2 -21 0 -31 5 -14 8 -12 13 20 37 37 28 47 61 22 71
-13 5 -31 49 -28 67 1 4 -3 7 -8 7 -6 0 -21 11 -33 25 -12 14 -33 27 -46 30
-12 2 -29 9 -36 15 -8 7 -44 15 -81 18 -85 9 -106 32 -112 124 -6 86 -35 102
-86 49z"/>
<path d="M740 2124 c0 -8 5 -12 10 -9 6 3 10 10 10 16 0 5 -4 9 -10 9 -5 0
-10 -7 -10 -16z"/>
<path d="M678 2103 c6 -2 18 -2 25 0 6 3 1 5 -13 5 -14 0 -19 -2 -12 -5z"/>
<path d="M4215 2098 c-2 -7 -7 -31 -11 -53 l-8 -40 -5 34 c-11 66 -64 67 -85
3 -10 -30 -13 -31 -31 -18 -20 14 -45 19 -76 17 -27 -2 -33 -26 -39 -161 -1
-8 -3 -30 -6 -49 -5 -32 -7 -33 -41 -28 -19 4 -44 14 -54 23 -18 16 -19 16
-19 -8 0 -16 -14 -37 -40 -61 -43 -38 -50 -68 -25 -103 31 -46 104 -63 198
-48 48 8 60 30 67 119 l5 70 19 -61 c10 -34 27 -72 37 -85 17 -23 17 -23 6 18
-10 37 -8 52 18 128 28 86 56 135 77 135 7 0 9 -30 4 -92 -12 -166 -12 -163 4
-163 8 0 15 5 15 10 0 6 9 21 19 35 10 14 16 18 13 8 -12 -35 7 -26 20 9 19
52 20 69 5 65 -9 -2 -12 4 -8 15 3 10 12 48 20 85 16 71 14 88 -32 176 -17 33
-39 42 -47 20z m-145 -290 c0 -5 -4 -8 -10 -8 -5 0 -10 10 -10 23 0 18 2 19
10 7 5 -8 10 -18 10 -22z"/>
<path d="M3860 2050 c8 -5 22 -9 30 -9 10 0 8 3 -5 9 -27 12 -43 12 -25 0z"/>
<path d="M4366 1952 c-3 -6 1 -25 9 -43 9 -22 14 -27 15 -15 0 15 5 17 27 11
16 -4 26 -5 23 -3 -3 2 -19 16 -36 31 -18 16 -35 24 -38 19z"/>
<path d="M4340 1841 c0 -16 -7 -48 -15 -71 -17 -49 -19 -74 -3 -45 6 11 19 27
30 35 10 9 21 31 24 50 4 28 1 37 -15 48 -19 11 -21 10 -21 -17z"/>
<path d="M4395 1820 c-3 -5 -1 -10 4 -10 6 0 11 5 11 10 0 6 -2 10 -4 10 -3 0
-8 -4 -11 -10z"/>
<path d="M4151 1791 c-10 -7 -12 -19 -6 -47 l8 -39 9 33 c12 44 7 64 -11 53z"/>
<path d="M4140 1668 c0 -25 3 -29 10 -18 13 20 13 50 0 50 -5 0 -10 -15 -10
-32z"/>
<path d="M4125 1610 c-3 -5 1 -10 9 -10 9 0 16 5 16 10 0 6 -4 10 -9 10 -6 0
-13 -4 -16 -10z"/>
<path d="M4018 1593 c7 -3 16 -2 19 1 4 3 -2 6 -13 5 -11 0 -14 -3 -6 -6z"/>
</g>
</svg>
